<svg width="14" height="14" viewBox="0 0 14 14" fill="none" xmlns="http://www.w3.org/2000/svg">
<path d="M12.3334 0.333344H1.66671C1.31337 0.333344 0.973374 0.473343 0.726707 0.726677C0.473374 0.973343 0.333374 1.31334 0.333374 1.66668V9.66668C0.333374 10.02 0.473374 10.36 0.726707 10.6067C0.973374 10.86 1.31337 11 1.66671 11H4.33337L7.00004 13.6667L9.66671 11H12.3334C12.6867 11 13.0267 10.86 13.2734 10.6067C13.52 10.3533 13.6667 10.02 13.6667 9.66668V1.66668C13.6667 1.31334 13.5267 0.973343 13.2734 0.726677C13.0267 0.473343 12.6867 0.333344 12.3334 0.333344ZM5.70004 3.02668C6.06004 2.78668 6.53337 2.66668 7.12671 2.66668C7.75337 2.66668 8.25337 2.80668 8.61337 3.08001C8.97337 3.36001 9.15337 3.73334 9.15337 4.20001C9.15337 4.49334 9.05337 4.75334 8.86004 5.00001C8.66671 5.24001 8.41337 5.42668 8.10671 5.56668C7.93337 5.66668 7.82004 5.76668 7.76004 5.88001C7.70004 6.00001 7.66671 6.14668 7.66671 6.33334H6.33337C6.33337 6.00001 6.40004 5.77334 6.52671 5.61334C6.66671 5.45334 6.89337 5.26668 7.24004 5.05334C7.41337 4.96001 7.55337 4.84001 7.66671 4.69334C7.76004 4.55334 7.81337 4.38668 7.81337 4.20001C7.81337 4.00001 7.75337 3.85334 7.63337 3.74001C7.51337 3.62001 7.33337 3.56668 7.12671 3.56668C6.94671 3.56668 6.80004 3.61334 6.66671 3.70668C6.56004 3.80001 6.49337 3.94001 6.49337 4.12668H5.18004C5.14671 3.66668 5.33337 3.26668 5.70004 3.02668ZM6.33337 8.33334V7.00001H7.66671V8.33334H6.33337Z" fill="#CCCCCC"/>
</svg>
