<svg width="61" height="60" viewBox="0 0 61 60" fill="none" xmlns="http://www.w3.org/2000/svg">
<path opacity="0.21" fill-rule="evenodd" clip-rule="evenodd" d="M0.5 30V37C0.5 49.7025 10.7975 60 23.5 60H30.5H37.5C50.2025 60 60.5 49.7025 60.5 37V30V23C60.5 10.2975 50.2025 0 37.5 0H30.5H23.5C10.7975 0 0.5 10.2975 0.5 23V30Z" fill="#8280FF"/>
<path opacity="0.587821" fill-rule="evenodd" clip-rule="evenodd" d="M21.1666 23.3333C21.1666 26.2789 23.5544 28.6667 26.5 28.6667C29.4455 28.6667 31.8333 26.2789 31.8333 23.3333C31.8333 20.3878 29.4455 18 26.5 18C23.5544 18 21.1666 20.3878 21.1666 23.3333ZM34.5 28.6667C34.5 30.8758 36.2908 32.6667 38.5 32.6667C40.7091 32.6667 42.5 30.8758 42.5 28.6667C42.5 26.4575 40.7091 24.6667 38.5 24.6667C36.2908 24.6667 34.5 26.4575 34.5 28.6667Z" fill="#8280FF"/>
<path fill-rule="evenodd" clip-rule="evenodd" d="M26.4778 31.3333C20.1826 31.3333 15.0177 34.5687 14.5009 40.9323C14.4727 41.2789 15.1356 42 15.47 42H37.4956C38.4972 42 38.5128 41.194 38.4972 40.9333C38.1065 34.3909 32.8616 31.3333 26.4778 31.3333ZM45.7746 42L40.6333 42C40.6333 38.9988 39.6417 36.2291 37.9683 34.0008C42.5103 34.0505 46.2189 36.3469 46.498 41.2C46.5092 41.3955 46.498 42 45.7746 42Z" fill="#8280FF"/>
</svg>
