<svg width="61" height="60" viewBox="0 0 61 60" fill="none" xmlns="http://www.w3.org/2000/svg">
<path opacity="0.3" fill-rule="evenodd" clip-rule="evenodd" d="M0.5 30V37C0.5 49.7025 10.7975 60 23.5 60H30.5H37.5C50.2025 60 60.5 49.7025 60.5 37V30V23C60.5 10.2975 50.2025 0 37.5 0H30.5H23.5C10.7975 0 0.5 10.2975 0.5 23V30Z" fill="#FF9066"/>
<path d="M17.6667 29C17.6667 36.364 23.636 42.3333 31 42.3333C38.364 42.3333 44.3334 36.364 44.3334 29C44.3334 21.636 38.364 15.6667 31 15.6667C23.636 15.6667 17.6667 21.636 17.6667 29Z" stroke="#FF9871" stroke-width="1.5" stroke-linecap="round" stroke-linejoin="round"/>
<path d="M32.3334 15.7333C32.3334 15.7333 36.3334 21 36.3334 29C36.3334 37 32.3334 42.2667 32.3334 42.2667M29.6667 42.2667C29.6667 42.2667 25.6667 37 25.6667 29C25.6667 21 29.6667 15.7333 29.6667 15.7333M18.5067 33.6667H43.4934M18.5067 24.3333H43.4934" stroke="#FF9871" stroke-width="1.5" stroke-linecap="round" stroke-linejoin="round"/>
</svg>
