<svg width="61" height="61" viewBox="0 0 61 61" fill="none" xmlns="http://www.w3.org/2000/svg">
<path opacity="0.21" fill-rule="evenodd" clip-rule="evenodd" d="M0.5 30.5V37.5C0.5 50.2025 10.7975 60.5 23.5 60.5H30.5H37.5C50.2025 60.5 60.5 50.2025 60.5 37.5V30.5V23.5C60.5 10.7975 50.2025 0.5 37.5 0.5H30.5H23.5C10.7975 0.5 0.5 10.7975 0.5 23.5V30.5Z" fill="#4AD991"/>
<path d="M17.6 22.4688C17.6 21.7145 17.895 20.9912 18.4201 20.4579C18.9452 19.9246 19.6574 19.625 20.4 19.625C21.1426 19.625 21.8548 19.9246 22.3799 20.4579C22.905 20.9912 23.2 21.7145 23.2 22.4688C23.2 23.223 22.905 23.9463 22.3799 24.4796C21.8548 25.0129 21.1426 25.3125 20.4 25.3125C19.6574 25.3125 18.9452 25.0129 18.4201 24.4796C17.895 23.9463 17.6 23.223 17.6 22.4688ZM17.2 30.477C16.7 31.0457 16.4 31.8023 16.4 32.625C16.4 33.4477 16.7 34.2043 17.2 34.773V30.4719V30.477ZM24.42 27.9734C22.935 29.309 22 31.2641 22 33.4375C22 35.1793 22.6 36.7789 23.6 38.0332V39.125C23.6 40.0238 22.885 40.75 22 40.75H18.8C17.915 40.75 17.2 40.0238 17.2 39.125V37.7641C15.31 36.85 14 34.8949 14 32.625C14 29.4816 16.505 26.9375 19.6 26.9375H21.2C22.4 26.9375 23.51 27.3184 24.42 27.9684V27.9734ZM36.4 39.125V38.0332C37.4 36.7789 38 35.1793 38 33.4375C38 31.2641 37.065 29.309 35.58 27.9684C36.49 27.3184 37.6 26.9375 38.8 26.9375H40.4C43.495 26.9375 46 29.4816 46 32.625C46 34.8949 44.69 36.85 42.8 37.7641V39.125C42.8 40.0238 42.085 40.75 41.2 40.75H38C37.115 40.75 36.4 40.0238 36.4 39.125ZM36.8 22.4688C36.8 21.7145 37.095 20.9912 37.6201 20.4579C38.1452 19.9246 38.8574 19.625 39.6 19.625C40.3426 19.625 41.0548 19.9246 41.5799 20.4579C42.105 20.9912 42.4 21.7145 42.4 22.4688C42.4 23.223 42.105 23.9463 41.5799 24.4796C41.0548 25.0129 40.3426 25.3125 39.6 25.3125C38.8574 25.3125 38.1452 25.0129 37.6201 24.4796C37.095 23.9463 36.8 23.223 36.8 22.4688ZM42.8 30.477V34.7781C43.3 34.2043 43.6 33.4527 43.6 32.6301C43.6 31.8074 43.3 31.0508 42.8 30.482V30.477ZM30 19.625C30.8487 19.625 31.6626 19.9674 32.2627 20.5769C32.8629 21.1864 33.2 22.013 33.2 22.875C33.2 23.737 32.8629 24.5636 32.2627 25.1731C31.6626 25.7826 30.8487 26.125 30 26.125C29.1513 26.125 28.3374 25.7826 27.7373 25.1731C27.1371 24.5636 26.8 23.737 26.8 22.875C26.8 22.013 27.1371 21.1864 27.7373 20.5769C28.3374 19.9674 29.1513 19.625 30 19.625ZM26 33.4375C26 34.2602 26.3 35.0117 26.8 35.5855V31.2844C26.3 31.8582 26 32.6098 26 33.4324V33.4375ZM33.2 31.2895V35.5906C33.7 35.0168 34 34.2652 34 33.4426C34 32.6199 33.7 31.8633 33.2 31.2945V31.2895ZM36.4 33.4375C36.4 35.7074 35.09 37.6625 33.2 38.5766V40.75C33.2 41.6488 32.485 42.375 31.6 42.375H28.4C27.515 42.375 26.8 41.6488 26.8 40.75V38.5766C24.91 37.6625 23.6 35.7074 23.6 33.4375C23.6 30.2941 26.105 27.75 29.2 27.75H30.8C33.895 27.75 36.4 30.2941 36.4 33.4375Z" fill="url(#paint0_linear_355_77)"/>
<defs>
<linearGradient id="paint0_linear_355_77" x1="30" y1="19.625" x2="30" y2="42.375" gradientUnits="userSpaceOnUse">
<stop stop-color="#91E8BC"/>
<stop offset="1" stop-color="#4AD991"/>
</linearGradient>
</defs>
</svg>
